<?xml version="1.0" encoding="UTF-8"?>
<svg id="Layer_2" data-name="Layer 2" xmlns="http://www.w3.org/2000/svg" width="383.57" height="377.46" viewBox="0 0 383.57 377.46">
  <defs>
    <style>
      .cls-1 {
        fill: #4CC9F0;
      }

      .cls-2 {
        fill: rgba(76, 201, 240, 0.14);
      }
    </style>
  </defs>
  <g id="Layer_1-2" data-name="Layer 1">
    <path class="cls-1" d="M383.57,170.02v32.94c-2.13,15.37-5.21,29.82-10.67,44.35-19.13,50.97-62.41,93.01-112.84,112.85,4.11,4.84,14.26,3.36,12.56,12.16-.95,4.95-5.18,5.84-9.6,4.69-3.51-.91-21.68-9.04-24.87-11.05-1.63-1.03-3.39-3.54-3.52-5.48-.31-4.75,14.32-22.7,17-28.05,5.34-3.57,12.18-.38,10.8,6.45l-3.51,7.78c54.08-23.79,99.01-73.94,109.43-133.1,4.31-24.46,2.78-48.25-3.72-72.16-1.37-5.05-6.28-16.17-5.83-20.45.64-6.02,9.45-7.13,12.61-1.3,5.39,9.95,11.32,38.81,12.15,50.35Z"/>
    <path class="cls-1" d="M217.49,91.33c9.04,2.33,17.61,6.08,25.74,10.57,8.22-6.08,11.52-14.71,23.59-10.87,5.21,1.66,22.47,19.06,23.6,24.31,1.19,5.55.23,9.74-3.1,14.2-1.75,2.34-8.78,7.61-8.44,9.99.28,1.93,5.24,10.68,6.44,13.85,1.36,3.57,2.79,7.57,3.21,11.38,9.18.19,19.66-1.85,25.3,7.27,3.93,6.35,3.56,30.83-.75,37.18-6.52,9.59-21.18,3.74-23.46,6.48-.91,1.09-2.83,8.96-3.74,11.23-1.93,4.79-4.18,9.49-6.92,13.87,8.87,7.86,17.6,17.78,7.8,29.3-2.36,2.77-15.57,15.25-18.28,16.52-12.81,6.02-17.94-4.13-26.4-10.72-8.22,4.47-16.83,8.47-26.09,10.24.48,13.28.99,25.53-15.39,26.9-4.71.4-19.24-.18-23.8-.96-5.72-.97-10.21-6.69-10.97-12.24-.38-2.8.75-12.13-.8-13.42-1.11-.92-8.94-2.81-11.23-3.74-4.81-1.96-9.37-4.33-13.87-6.89-7.75,8.08-15.94,17.24-27.68,8.77-3.07-2.22-16.71-16.24-18.14-19.29-5.97-12.7,4.17-17.96,10.72-26.4-4.47-8.22-8.47-16.83-10.24-26.09-9.13-.61-19.43,2.63-24.65-7.16-3.33-6.24-3.42-29.74.13-35.84,5.75-9.87,15.5-4.9,24.24-7.2,2.1-9.17,6.25-17.61,10.78-25.75-7.29-6.17-13.88-11.55-11.59-22.22,1.45-6.77,19.93-23.93,26.99-24.66,11.07-1.14,13.63,6.41,20.96,12.6,7.98-5.31,17.22-8.15,26.25-11.05.79-10.44-2.1-22.19,10.64-26.03,5.39-1.63,24.84-1.67,30.1.17,10.96,3.84,8.9,16.5,9.09,25.72ZM302.72,201.46v-22.08l-1.12-1.12h-19.46c-.41,0-4.07-2.17-4.29-3.2-1.82-6.17-3.05-12.5-5.46-18.5-1.69-4.2-9.04-15.52-9.34-18.42-.57-5.52,12.17-13.17,14.67-18.23.12-.49-5.5-6.9-6.42-7.92-1.52-1.68-8.24-8.96-9.97-8.51-4.19,1.1-10.73,14.81-17.78,13.81-2.96-.42-13.03-7.23-17.2-9s-18.18-5.06-20.13-6.81c-.41-.37-1.55-1.87-1.55-2.19v-20.21l-1.12-1.12h-22.08c-2.15,6.41.43,15.05-.77,21.32-.25,1.32-1.9,3.12-3.04,3.7-3.14,1.61-11.4,2.75-15.85,4.36-4.73,1.72-18.98,10.22-21.79,10.05-5.81-.34-15.69-15.08-17.96-14.68l-15.87,14.92c-.7.87-.08,1.23.37,1.89,3.51,5.1,14.07,10.47,13.57,17.19-.19,2.49-7.71,14.34-9.38,18.37-2.32,5.6-3.22,12.28-5.36,17.13-.46,1.04-2.88,3.8-3.65,3.8h-19.46l-1.12,1.12v21.71l1.12,1.12h19.46c.89,0,3.81,2.87,4.29,3.94,1.93,4.36,2.6,11.7,4.71,17,1.78,4.47,9.24,15.79,9.4,19.11.3,6.38-14.71,14.63-14.31,18.66.22,2.27,13.12,13.25,15.37,15.95,5.55-2.3,11.94-14.36,17.96-14.09,2.91.13,12.92,6.9,16.88,8.64,5.92,2.59,14.3,3.84,19.22,6.23,1.48.72,3.96,3.5,3.96,5.02v17.96l1.12,1.12h22.08c2.3-5.12-1.14-19.54,1.9-23.18,1.74-2.08,13.27-4.14,17-5.46,4.99-1.77,18.87-10.2,21.91-10.34,6.38-.29,14.63,14.71,18.66,14.31,2.27-.22,13.25-13.12,15.95-15.37-2.3-5.55-14.36-11.94-14.09-17.96.13-2.91,6.9-12.92,8.64-16.88,2.78-6.36,4.48-13.1,6.48-19.72,3.24-5.52,18.16-.93,23.86-3.46Z"/>
    <path class="cls-1" d="M31.74,132.6c-1.03.08-1.19,1.09-1.53,1.83-46.8,103.23,43.8,220.28,150.87,226.46,5.97.34,18.01-1.14,22.86.34,6.53,2,6.25,12.13-2.66,13.14-17.1,1.94-45.05-2.98-61.75-7.86C59.09,343.01-2.23,262.61,4.9,177.23c1.34-15.99,8.16-33.29,13.38-48.37-.78-.65-7.39,3.72-8.96,4.13-9.08,2.36-12.69-7.36-5.51-12.25,2.88-1.96,20.53-10.99,23.43-11.75,5.11-1.34,7.66-.37,10.17,4.1,3.06,5.45,8.38,17.34,10.42,23.26,1.3,3.77,1.97,7.39-2.32,9.62-8.57,4.46-11.27-7.73-13.76-13.37Z"/>
    <path class="cls-1" d="M340.9,85.44c-23.57-30.45-58.87-53.68-95.82-64.75-65.3-19.56-134.26-.93-180.78,48.27-4.78,5.05-11.05,17.82-18.87,12.97-7.77-4.82,3.87-16.24,7.64-20.45,21.7-24.23,53.25-43.95,84.4-53.34,76.41-23.02,158.64,4.23,209.79,63.82,1.04-4.58-1.54-12.45,5.29-13.44,4.94-.72,7.41,1.62,7.84,6.3.38,4.15.48,27.62-.6,30.16s-3.31,3-5.76,3.22c-9.99.9-21.73-.47-31.89-.37-5.84-1.81-3.84-12.39.41-12.39h18.34Z"/>
    <path class="cls-2" d="M302.72,201.46c-5.7,2.53-20.62-2.06-23.86,3.46-2,6.62-3.7,13.36-6.48,19.72-1.74,3.97-8.51,13.97-8.64,16.88-.27,6.02,11.79,12.41,14.09,17.96-2.7,2.26-13.68,15.15-15.95,15.37-4.03.39-12.28-14.61-18.66-14.31-3.04.14-16.92,8.57-21.91,10.34-3.73,1.32-15.26,3.38-17,5.46-3.04,3.64.4,18.06-1.9,23.18h-22.08l-1.12-1.12v-17.96c0-1.52-2.48-4.3-3.96-5.02-4.93-2.39-13.3-3.64-19.22-6.23-3.97-1.74-13.97-8.51-16.88-8.64-6.02-.27-12.41,11.79-17.96,14.09-2.26-2.7-15.15-13.68-15.37-15.95-.39-4.03,14.61-12.28,14.31-18.66-.15-3.33-7.62-14.64-9.4-19.11-2.11-5.31-2.78-12.65-4.71-17-.48-1.08-3.4-3.94-4.29-3.94h-19.46l-1.12-1.12v-21.71l1.12-1.12h19.46c.77,0,3.19-2.76,3.65-3.8,2.14-4.85,3.04-11.53,5.36-17.13,1.67-4.03,9.19-15.88,9.38-18.37.5-6.71-10.06-12.08-13.57-17.19-.45-.66-1.07-1.01-.37-1.89l15.87-14.92c2.27-.4,12.15,14.33,17.96,14.68,2.81.17,17.07-8.33,21.79-10.05,4.44-1.62,12.71-2.75,15.85-4.36,1.13-.58,2.78-2.38,3.04-3.7,1.19-6.26-1.39-14.9.77-21.32h22.08l1.12,1.12v20.21c0,.32,1.14,1.82,1.55,2.19,1.95,1.76,15.84,4.99,20.13,6.81s14.24,8.59,17.2,9c7.06.99,13.59-12.71,17.78-13.81,1.73-.46,8.46,6.83,9.97,8.51.93,1.02,6.55,7.42,6.42,7.92-2.5,5.06-15.24,12.71-14.67,18.23.3,2.9,7.65,14.22,9.34,18.42,2.41,5.99,3.64,12.33,5.46,18.5.21,1.03,3.88,3.2,4.29,3.2h19.46l1.12,1.12v22.08ZM241.11,162.02c-2.97-2.69-9.36-2.17-10.66,1.97-1.67,5.3,2.8,10.99,3.94,16.34,8.09,37.8-35.64,64.88-67.09,43.14-31.85-22.01-19.36-69.7,18.36-75.82,6.58-1.07,18.35,1.23,15.84-9.29-1.72-7.19-19.77-3.69-25.12-2.24-38.2,10.32-53.33,57.49-27.84,88.14,34.81,41.86,105.36,14.51,99.52-41.89-.44-4.25-3.98-17.66-6.96-20.36ZM213.43,140.24c-4.6,1.05-5.31,7.86-2.37,11.03.57.61,7.59,4.95,8.36,5.12,5.8,1.3,9.56-2.65,8.43-8.43-.82-4.21-10.25-8.67-14.42-7.72Z"/>
    <path class="cls-1" d="M241.11,162.02c2.98,2.69,6.52,16.11,6.96,20.36,5.84,56.4-64.71,83.75-99.52,41.89-25.49-30.66-10.37-77.82,27.84-88.14,5.35-1.45,23.41-4.95,25.12,2.24,2.51,10.52-9.26,8.22-15.84,9.29-37.73,6.12-50.22,53.8-18.36,75.82,31.45,21.74,75.19-5.34,67.09-43.14-1.15-5.35-5.61-11.04-3.94-16.34,1.3-4.14,7.69-4.66,10.66-1.97Z"/>
    <path class="cls-1" d="M213.43,140.24c4.17-.95,13.61,3.51,14.42,7.72,1.12,5.78-2.63,9.74-8.43,8.43-.77-.17-7.79-4.52-8.36-5.12-2.95-3.16-2.23-9.97,2.37-11.03Z"/>
  </g>
</svg>