<?xml version="1.0" encoding="UTF-8"?>
<svg id="Layer_2" data-name="Layer 2" xmlns="http://www.w3.org/2000/svg" width="383.28" height="383.37" viewBox="0 0 383.28 383.37">
  <defs>
    <style>
      .cls-1 {
        fill: #4CC9F0;
      }

      .cls-2 {
        fill: rgba(76, 201, 240, 0.14);
      }
    </style>
  </defs>
  <g id="Layer_1-2" data-name="Layer 1">
    <path class="cls-1" d="M194.65,0l76.9,43.95,94.05.26c8.69.94,14.61,6.08,17.68,14.11v246.76c-2,3.85-3.17,7.3-6.72,10.11-1.54,1.22-6.97,4.1-8.63,4.1h-117.89c.48,7.37,4.35,15.48,9.35,20.95,5.51,6.02,4.74,3.54,11.79,4.67,21.96,3.52,22.21,37.6-3.52,37.97-49.19.72-101.06.61-152.76,0-24.6-2.12-24.73-34.45-2.77-37.97,6.73-1.08,6.08,1.4,11.43-4.29,5.21-5.54,9.22-13.78,9.71-21.33H15.38c-6.27,0-15.41-9.53-15.35-16.07l-.03-242.3c.98-9.76,9-15.93,18.38-16.78,29.75-2.7,63.24,2.13,93.38-.18L188.66,0h5.99ZM266.51,58.31l-1.24-2.12L191.9,14.32l-73.37,41.61-1.73,2.01,75.17,42.27,74.54-41.9ZM95.84,57.58H18.37c-.85,0-4.87,2.95-4.87,4.11v211.99h25.08c4.7,0,7.43,5.39,6.03,9.76-.26.81-2.61,3.7-3.03,3.7H13.5v14.58c0,1.71,4.29,4.82,6.33,4.15h343.65c2.04.68,6.33-2.44,6.33-4.15v-14.58H61.04c-1.47,0-3.71-3.63-3.97-5.05-.79-4.16,2.86-8.41,6.97-8.41h305.78V61.69c0-1.16-4.02-4.11-4.87-4.11h-77.47v90.85c7.28,4.65,14.81,9.43,22.42,13.5,1.74.93,3.5.52,4.16,2.58.31-5.73-5.88-12.67-.01-17.22,4.81-3.72,9.17-1.27,11.08,3.91,1.7,4.6,6.78,22.28,7.12,26.59.21,2.65-.72,4.94-2.87,6.49-8.46,1.99-19.08,6.65-27.49,7.68-6.12.75-9.94-.97-9.18-7.67.81-7.12,9.63-5.02,14.22-8.21l-25.81-15.11-82.71,46.89v30.66c4.22-2.55,6.92-9.05,12.35-9.04,7.13,0,8.26,6.95,4.51,12.05-2.08,2.82-15.98,16.78-18.73,18.68-2.47,1.71-4.96,2.08-7.9,1.16-1.37-.43-18.98-17.69-20.56-19.83-3.75-5.1-2.62-12.04,4.51-12.05,5.43,0,8.14,6.49,12.35,9.04v-30.66l-82.3-46.79-26.23,15.02c-.05,1.62,11.89,1.78,13.82,6.37,2.96,7.04-2.31,10.31-8.78,9.51-8.54-1.06-18.95-5.62-27.49-7.68-2.15-1.55-3.08-3.84-2.87-6.49.36-4.51,5.36-21.81,7.12-26.59,1.9-5.18,6.27-7.63,11.08-3.91,5.87,4.54-.32,11.49-.01,17.22.66-2.06,2.42-1.65,4.16-2.58,7.62-4.08,15.18-8.77,22.42-13.5V57.58ZM184.92,112.16l-75.6-42.62v79.63l75.6,43v-80.01ZM198.39,192.17l75.6-43v-79.63l-75.6,42.62v80.01ZM137.01,344.71h109.29c-2.19-4.86-5.09-9.44-6.76-14.56-1.11-3.41-2.11-7.26-2.23-10.86l-90.88-.05c-1.13,3.56-1.5,7.33-2.66,10.91-1.65,5.12-4.59,9.69-6.76,14.56ZM272.98,368.37c3.69-3.69,1.72-10.78-3.84-10.97H114.17c-7.8.71-7.42,11.86-.01,12.76l156.29-.23c.87-.41,1.86-.88,2.54-1.56Z"/>
    <polygon class="cls-2" points="266.51 58.31 191.97 100.21 116.79 57.94 118.53 55.93 191.9 14.32 265.27 56.2 266.51 58.31"/>
    <polygon class="cls-2" points="184.92 112.16 184.92 192.17 109.32 149.17 109.32 69.54 184.92 112.16"/>
    <polygon class="cls-2" points="198.39 192.17 198.39 112.16 274 69.54 274 149.17 198.39 192.17"/>
    <path class="cls-2" d="M137.01,344.71c2.18-4.86,5.11-9.44,6.76-14.56,1.16-3.58,1.52-7.35,2.66-10.91l90.88.05c.11,3.6,1.11,7.46,2.23,10.86,1.67,5.12,4.57,9.7,6.76,14.56h-109.29Z"/>
    <path class="cls-2" d="M272.98,368.37c-.68.68-1.66,1.15-2.54,1.56l-156.29.23c-7.41-.9-7.78-12.05.01-12.76h154.98c5.56.19,7.53,7.28,3.84,10.97Z"/>
  </g>
</svg>