<?xml version="1.0" encoding="UTF-8"?>
<svg id="Layer_1" data-name="Layer 1" xmlns="http://www.w3.org/2000/svg" width="5.64cm" height="5.64cm" viewBox="0 0 160 160">
  <defs>
    <style>
      .cls-1 {
        fill: #fcee09;
      }
    </style>
  </defs>
  <path class="cls-1" d="M79.34,77.63l12.85,12.85h18.34l18.15,18.15c-4.91,20.98-21.17,37.24-42.16,42.16l-18.15-18.15v-18.34l-12.85-12.85h-18.34l-12.85,12.85v18.34l12.85,12.85c27.41,20.23,65.97,14.56,86.39-12.85,7.75-10.59,12.1-23.44,12.1-36.67V15.25l-12.85-12.85h-43.29v75.24h-.19ZM117.33,7.69l-32.51,32.51v-6.62l26.09-26.09h6.62l-.19.19ZM104.29,7.69l-19.47,19.47v-6.62l13.04-13.04h6.43v.19ZM91.25,7.69l-6.43,6.43v-6.43h6.43Z"/>
</svg>